<?xml version="1.0" encoding="UTF-8"?>
<svg id="Layer_1" xmlns="http://www.w3.org/2000/svg" version="1.1" viewBox="0 0 25.11 14.84">
  <!-- Generator: Adobe Illustrator 30.0.0, SVG Export Plug-In . SVG Version: 2.1.1 Build 123)  -->
  <path d="M4.28.77c.76,1.82,1.89,3.41,3.27,4.53.99.81,2.07,1.35,3.04,2.16s1.86,1.93,2.12,3.36c-.23.05-.46-.18-.6-.44s-.14-.57-.16-.89v-.29c.09-.21.32-.21.51-.15,1.45.42,2.83,1.54,4.3,1.33,1.15-.15,2.12-1.09,3.13-1.8.41-.29,1.01-.52,1.33-.05.07.11.12.26.21.37.12.15.3.21.46.26.62.15,1.27.24,1.91.21-.81.47-1.75.39-2.62.47-1.54.13-3.04.78-4.51,1.41-.78.34-1.54.68-2.28,1.12-.55.34-1.1.73-1.68.99-1.36.63-2.83.5-4.26.15-1.43-.34-2.81-.83-4.23-.99-.92-.08-1.86,0-2.78-.18l.12.37c-.16-.08-.35-.11-.53-.05.07.18.16.34.3.44h-.53c.12.21.37.29.6.29.94.05,1.82-.47,2.71-.89.9-.42,1.86-.73,2.74-.31-.9.34-1.86.39-2.78.21-.18-.05-.41-.24-.32-.42-.18.18-.46.15-.62-.05,2.25-.81,4.55-1.43,6.88-1.9.18-.02.35-.08.53,0s.32.26.3.5c-1.61.18-3.24.18-4.85,0-.21,0-.48-.13-.48-.39,0-.11.05-.21.12-.29.28-.42.64-.73,1.06-.91.16-.08.37-.11.53-.05s.32.29.28.5c-.6.26-1.29.11-1.77-.39-.3-.31-.51-.91-.23-1.28.12-.15.28-.21.44-.29.35-.13.69-.24,1.04-.15s.69.37.76.81c-1.45.15-2.92-.96-3.47-2.63.41.24.87.37,1.33.42-.67-.65-1.15-1.56-1.38-2.58.05.21,1.15,1.04,1.27.94-.64-1.04-1.1-2.11-1.17-3.43h.02,0Z" fill="#edd2d0" stroke="#e4aaa6" stroke-miterlimit="10" stroke-width=".25"/>
</svg>