<?xml version="1.0" encoding="UTF-8"?>
<svg id="Layer_1" xmlns="http://www.w3.org/2000/svg" version="1.1" viewBox="0 0 36.68 21.54">
  <!-- Generator: Adobe Illustrator 30.0.0, SVG Export Plug-In . SVG Version: 2.1.1 Build 123)  -->
  <path d="M6.22.61c1.14,2.81,2.87,5.23,4.96,6.94,1.49,1.23,3.15,2.09,4.63,3.34s2.83,2.97,3.22,5.16c-.36.06-.72-.26-.89-.68s-.21-.89-.25-1.36c-.01-.15-.02-.31.04-.45.13-.32.49-.31.76-.23,2.21.63,4.29,2.36,6.55,2.05,1.75-.24,3.22-1.69,4.75-2.77.64-.45,1.55-.79,2.02-.09.12.17.19.4.32.56.18.23.44.32.69.38.95.25,1.93.36,2.89.32-1.23.71-2.65.59-4,.71-2.36.21-4.63,1.2-6.86,2.17-1.18.51-2.36,1.03-3.48,1.71-.85.51-1.67,1.12-2.56,1.53-2.05.95-4.32.75-6.47.24s-4.26-1.29-6.43-1.51c-1.41-.14-2.83-.03-4.22-.29.05.18.11.37.16.56-.25-.12-.53-.15-.79-.06.09.28.25.51.45.69-.27-.02-.53-.03-.8-.04.18.38.57.49.92.5,1.43.06,2.78-.73,4.12-1.37s2.84-1.14,4.17-.5c-1.37.5-2.82.61-4.22.3-.28-.06-.64-.34-.5-.65-.27.27-.7.24-.94-.07,3.44-1.23,6.92-2.2,10.45-2.9.27-.05.54-.1.8,0s.48.41.46.75c-2.45.29-4.92.28-7.37-.03-.32-.04-.74-.21-.72-.62,0-.16.08-.3.16-.43.41-.65.97-1.14,1.6-1.39.26-.1.55-.17.81-.06.26.11.48.43.43.77-.9.42-1.97.17-2.7-.62-.46-.5-.76-1.42-.35-1.97.18-.23.43-.33.67-.42.51-.18,1.04-.35,1.57-.24.53.1,1.04.56,1.14,1.22-2.2.23-4.44-1.47-5.3-4.03.64.36,1.34.58,2.04.63-1.02-.98-1.76-2.4-2.09-3.95.07.34,1.74,1.6,1.93,1.45-.97-1.58-1.67-3.24-1.77-5.28h0l-.02.03Z" fill="none" stroke="#000" stroke-miterlimit="10" stroke-width=".25"/>
</svg>