<?xml version="1.0" encoding="UTF-8"?>
<svg id="Layer_1" xmlns="http://www.w3.org/2000/svg" version="1.1" viewBox="0 0 53.97 27.1">
  <!-- Generator: Adobe Illustrator 30.0.0, SVG Export Plug-In . SVG Version: 2.1.1 Build 123)  -->
  <path d="M10.41,1.78c1.63,3.23,4.1,6.02,7.09,7.99,2.13,1.41,4.5,2.41,6.62,3.84s4.04,3.42,4.6,5.94c-.52.07-1.03-.3-1.27-.78s-.3-1.02-.35-1.56c-.02-.17-.03-.36.05-.52.18-.37.7-.36,1.09-.27,3.16.72,6.13,2.72,9.35,2.36,2.5-.28,4.6-1.94,6.79-3.19.91-.52,2.21-.91,2.89-.1.17.2.27.46.45.65.26.27.63.37.99.44,1.35.29,2.75.41,4.13.37-1.76.82-3.78.68-5.71.82-3.37.24-6.61,1.38-9.8,2.5-1.68.59-3.37,1.18-4.97,1.97-1.21.59-2.38,1.29-3.65,1.76-2.93,1.09-6.17.86-9.24.28-3.07-.58-6.08-1.49-9.19-1.74-2.01-.16-4.04-.04-6.03-.33.07.21.15.43.23.64-.36-.14-.76-.17-1.13-.07.13.32.36.59.64.79-.38-.02-.76-.03-1.14-.05.26.44.82.56,1.32.57,2.04.07,3.97-.84,5.88-1.58,1.91-.74,4.05-1.31,5.96-.57-1.95.58-4.03.7-6.03.35-.4-.07-.92-.39-.72-.75-.38.31-1,.28-1.34-.08,4.91-1.41,9.89-2.53,14.93-3.34.38-.06.77-.12,1.14,0s.69.47.65.86c-3.5.33-7.03.32-10.53-.03-.46-.05-1.05-.24-1.03-.71,0-.18.11-.35.23-.49.59-.75,1.39-1.31,2.29-1.6.37-.12.78-.2,1.15-.07s.68.5.62.89c-1.28.48-2.81.2-3.85-.71-.65-.57-1.08-1.63-.5-2.27.25-.27.61-.38.96-.48.73-.21,1.49-.4,2.24-.28s1.49.65,1.63,1.4c-3.14.27-6.34-1.69-7.57-4.64.92.42,1.91.67,2.92.72-1.45-1.13-2.52-2.76-2.99-4.55.1.39,2.49,1.84,2.76,1.67-1.38-1.82-2.38-3.73-2.53-6.08h0Z" fill="none" stroke="#000" stroke-miterlimit="10" stroke-width=".25"/>
</svg>