<?xml version="1.0" encoding="UTF-8"?>
<svg id="Layer_1" xmlns="http://www.w3.org/2000/svg" version="1.1" viewBox="0 0 400 270">
  <!-- Generator: Adobe Illustrator 30.0.0, SVG Export Plug-In . SVG Version: 2.1.1 Build 123)  -->
  <path d="M23.63,37.94s0,188.62,0,188.62c0,6.87,7.36,12.44,16.44,12.44h305.6c9.08,0,16.44-5.57,16.44-12.44,0,0,0-188.62,0-188.62,0-6.87-7.36-12.44-16.44-12.44h-88.63c-9.11,0-16.48,5.6-16.44,12.49.04,6.89-7.34,12.49-16.44,12.49,0,0-67.98,0-67.98,0-9.21.01-16.64-5.76-16.45-12.72-.12-6.8-7.45-12.27-16.44-12.27,0,0-83.21,0-83.21,0-9.08,0-16.44,5.57-16.44,12.44Z" fill="#c7b299" stroke="#000" stroke-miterlimit="10" stroke-width=".5"/>
  <rect x="29.22" y="30.62" width="327.31" height="196.2" rx="6.74" ry="6.74" fill="#ffebe2" stroke="#000" stroke-miterlimit="10" stroke-width=".5"/>
  <rect x="35.88" y="36.56" width="327.31" height="196.2" rx="5.12" ry="5.12" fill="#fce0ed" stroke="#000" stroke-miterlimit="10" stroke-width=".5"/>
  <rect x="29.22" y="42.8" width="327.31" height="196.2" rx="5.12" ry="5.12" fill="#e8dff9" stroke="#000" stroke-miterlimit="10" stroke-width=".5"/>
  <rect x="31.17" y="56.11" width="311.64" height="178.53" rx="5.12" ry="5.12" fill="#dee4ff" stroke="#000" stroke-miterlimit="10" stroke-width=".5"/>
  <path d="M36.99,58.7s-13.36,173.36-13.36,173.36c0,6.87,7.38,12.44,16.49,12.44h306.4c9.11,0,16.49-5.57,16.49-12.44l13.36-173.36c0-6.87-7.38-12.44-16.49-12.44h-88.86c-9.13,0-16.52,5.6-16.49,12.49.04,6.89-7.35,12.49-16.49,12.49,0,0-68.16,0-68.16,0-9.24.01-16.68-5.76-16.49-12.72-.13-6.8-7.47-12.27-16.49-12.27,0,0-83.43,0-83.43,0-9.11,0-16.49,5.57-16.49,12.44Z" fill="#c7b299" stroke="#000" stroke-miterlimit="10" stroke-width=".5"/>
</svg>